<svg width="64" height="64" viewBox="0 0 64 64" fill="none" xmlns="http://www.w3.org/2000/svg">
<path d="M57.2275 31.4257C57.2275 28.1446 54.5677 25.4848 51.2864 25.4848C51.0755 25.4848 50.8672 25.4961 50.6621 25.5176L58.8219 1.45097H24.1452L32.2937 25.4967C32.1742 25.4895 32.054 25.4848 31.9327 25.4848C28.6516 25.4848 25.9917 28.1446 25.9917 31.4257C25.9917 34.0779 27.7298 36.3232 30.1287 37.0871C28.8617 39.2819 27.2674 41.2585 25.4573 42.9663C22.996 45.2883 20.1791 47.049 17.1323 48.134C13.505 46.2705 11.792 42.1264 13.3377 38.4927C13.5121 38.0823 13.6905 37.6665 13.8607 37.2524C16.4887 36.6391 18.4468 34.2833 18.4468 31.4684C18.4468 28.1873 15.787 25.5275 12.5057 25.5275C9.22464 25.5275 6.56471 28.1873 6.56471 31.4684C6.56471 33.4804 7.56588 35.2576 9.09608 36.3323C7.62566 39.6803 5.46414 43.1841 4.79074 47.2451C3.98371 52.112 4.78813 57.278 8.99741 60.1955C18.8005 66.9899 29.4417 55.9835 40.6614 53.2168C44.7276 52.214 49.1909 52.3756 52.7734 50.3007C55.4637 48.7425 57.2372 46.1604 57.7405 43.2613C58.2378 40.3974 57.5129 37.5459 55.8457 35.2338C56.708 34.2026 57.2275 32.8751 57.2275 31.4257Z" fill="#99425B"/>
<path d="M56.311 43.013C55.874 45.5299 54.3195 47.7284 52.0461 49.0452C49.927 50.2726 47.3875 50.6389 44.6988 51.0266C43.2584 51.2343 41.769 51.4492 40.314 51.808C36.4667 52.7566 32.7403 54.6076 29.1367 56.3976C21.9249 59.9797 15.6967 63.0729 9.82401 59.0029C5.5223 56.0215 5.72093 50.5053 6.2221 47.4825C6.68656 44.6819 7.94223 42.1028 9.15656 39.6085C9.36637 39.1772 9.57197 38.754 9.77206 38.3343C10.3739 38.5748 11.0141 38.7389 11.6814 38.8135C10.4453 42.8929 12.3892 47.3285 16.4693 49.4246L17.0277 49.7115L17.6191 49.5009C20.8446 48.3522 23.8168 46.5089 26.4531 44.0216C28.1571 42.4139 29.6223 40.6353 30.8265 38.7348C31.1875 38.7892 31.5567 38.8178 31.9327 38.8178C35.6774 38.8178 38.7784 36.0183 39.2582 32.4026C40.7911 32.3465 42.4192 32.346 43.9609 32.402C44.4404 36.018 47.5416 38.8178 51.2864 38.8178C52.8522 38.8178 54.3046 38.3271 55.5011 37.4935C56.3317 39.1939 56.6418 41.1072 56.311 43.013ZM12.5057 26.9784C14.9817 26.9784 16.9958 28.9927 16.9958 31.4685C16.9958 32.3578 16.7349 33.187 16.2868 33.8854C15.5403 35.0493 14.272 35.8472 12.8142 35.9468C12.7122 35.9537 12.6094 35.9585 12.5057 35.9585C11.954 35.9585 11.4255 35.8578 10.9368 35.6751C9.94821 35.3051 9.12449 34.5959 8.60635 33.6902C8.23127 33.0345 8.01565 32.2764 8.01565 31.4685C8.01565 28.9927 10.0299 26.9784 12.5057 26.9784ZM27.4426 31.4258C27.4426 29.1764 29.1055 27.3085 31.2663 26.9855C31.4838 26.9529 31.7063 26.9358 31.9327 26.9358C33.3721 26.9358 34.6536 27.6177 35.4755 28.6743C35.6798 28.9368 35.857 29.2216 35.9996 29.5258C36.2705 30.1032 36.4227 30.7469 36.4227 31.4258C36.4227 31.7848 36.3792 32.1337 36.2993 32.4685C35.8616 34.3003 34.2997 35.7004 32.3857 35.8931C32.2368 35.908 32.0856 35.9159 31.9327 35.9159C31.0363 35.9159 30.2011 35.6508 29.4993 35.1963C28.263 34.3955 27.4426 33.0051 27.4426 31.4258ZM46.1825 26.0866C45.2206 27.007 44.5053 28.1829 44.1491 29.5052C42.4864 29.4428 40.7233 29.4428 39.0702 29.5052C38.6905 28.0958 37.9029 26.8525 36.8435 25.908L41.4896 16.5134L46.1825 26.0866ZM26.169 2.90206H56.7978L49.5637 24.2381C49.2501 24.3134 48.9442 24.4082 48.6474 24.5221L41.501 9.9438L34.3345 24.435C34.0247 24.3284 33.7055 24.2425 33.3787 24.1773L26.169 2.90206ZM55.7765 31.4258C55.7765 31.876 55.7091 32.3106 55.5854 32.721C55.2905 33.6972 54.6718 34.5337 53.8548 35.1056C53.1264 35.6155 52.241 35.9159 51.2864 35.9159C49.2133 35.9159 47.4644 34.503 46.9503 32.5898C46.8505 32.2183 46.7964 31.8283 46.7964 31.4258C46.7964 30.812 46.9204 30.2269 47.1443 29.6936C47.2597 29.4188 47.4036 29.1591 47.5689 28.915C48.3769 27.7225 49.7405 26.9358 51.2864 26.9358C51.4282 26.9358 51.568 26.9432 51.7065 26.9561C53.9861 27.1685 55.7765 29.0916 55.7765 31.4258ZM58.6784 31.4258C58.6784 27.8169 56.0783 24.8059 52.6535 24.1625L60.8459 0.000106812H22.1215L30.3263 24.2117C27.0204 24.9473 24.5407 27.9015 24.5407 31.4258C24.5407 34.0721 25.9393 36.3967 28.0352 37.7029C27.0271 39.2049 25.8315 40.6183 24.4616 41.9109C22.2888 43.9607 19.8683 45.5151 17.2587 46.5379C14.6302 44.8868 13.5191 41.7732 14.673 39.0606L14.7634 38.848C14.82 38.7152 14.8766 38.5822 14.933 38.4491C17.8201 37.4421 19.8977 34.6943 19.8977 31.4685C19.8977 27.3924 16.5816 24.0765 12.5057 24.0765C8.42976 24.0765 5.1137 27.3924 5.1137 31.4685C5.1137 33.5258 5.95933 35.3889 7.32035 36.7303C7.07368 37.256 6.81395 37.7907 6.54741 38.3381C5.30305 40.894 3.8927 43.7909 3.35932 47.0077C2.29996 53.3964 4.00878 58.5034 8.17091 61.3881C10.6966 63.1385 13.2614 63.8267 15.8425 63.8267C20.7027 63.8267 25.6191 61.385 30.4276 58.9966C33.8906 57.2766 37.4717 55.4978 41.0088 54.6255C42.3249 54.3009 43.6792 54.1056 45.1131 53.8988C47.9563 53.4886 50.8964 53.0647 53.5006 51.5564C56.5194 49.8078 58.5858 46.8748 59.1701 43.5095C59.6717 40.6205 59.0681 37.7268 57.5958 35.2729C58.2822 34.1515 58.6784 32.8341 58.6784 31.4258Z" fill="white"/>
</svg>
