<svg width="64" height="64" viewBox="0 0 64 64" fill="none" xmlns="http://www.w3.org/2000/svg">
<path d="M19.5165 37.6469C22.7209 37.6469 25.3187 35.0492 25.3187 31.8447C25.3187 28.6402 22.7209 26.0425 19.5165 26.0425C16.312 26.0425 13.7143 28.6402 13.7143 31.8447C13.7143 35.0492 16.312 37.6469 19.5165 37.6469ZM5.8022 49.2513C9.00666 49.2513 11.6044 46.6536 11.6044 43.4491C11.6044 40.2446 9.00666 37.6469 5.8022 37.6469C2.59773 37.6469 0 40.2446 0 43.4491C0 46.6536 2.59773 49.2513 5.8022 49.2513ZM58.1978 49.2513C61.4023 49.2513 64 46.6536 64 43.4491C64 40.2446 61.4023 37.6469 58.1978 37.6469C54.9933 37.6469 52.3956 40.2446 52.3956 43.4491C52.3956 46.6536 54.9933 49.2513 58.1978 49.2513Z" fill="black"/>
<path d="M39.1414 32.0892C38.9559 30.1507 38.8614 28.5373 37.3764 27.4033C35.4957 25.9672 33.3653 26.899 30.7411 25.9518C28.1626 25.328 26.25 23.0386 26.25 20.3099C26.25 17.1012 28.8945 14.5 32.1566 14.5C34.5727 14.5 36.6499 15.9269 37.5649 17.9706C38.9653 20.6305 38.0551 23.3375 39.8146 24.701C41.8979 26.3155 44.7065 25.1332 47.8405 26.6629C48.8475 27.1257 49.6999 27.8596 50.3005 28.7692C50.9011 29.6788 51.25 30.7641 51.25 31.9296C51.25 34.6584 49.3374 36.9478 46.7589 37.5715C44.1347 38.5187 42.0043 37.5869 40.1236 39.023C38.0088 40.6379 39.141 43.3397 37.4173 46.1936C36.439 48.0729 34.4505 49.3592 32.1566 49.3592C28.8945 49.3592 26.25 46.758 26.25 43.5493C26.25 41.2184 27.6455 39.2081 29.6595 38.2827C32.7935 36.7529 35.6021 37.9353 37.6854 36.3207C38.8873 35.3894 39.1414 33.9526 39.1414 32.0892Z" fill="#D0021B"/>
</svg>
