<svg width="52" height="52" viewBox="0 0 52 52" fill="none" xmlns="http://www.w3.org/2000/svg">
<g clip-path="url(#clip0_2_41)">
<path d="M26.0034 51.6038C40.1659 51.6038 51.6469 40.1487 51.6469 26.018C51.6469 11.8874 40.1659 0.432251 26.0034 0.432251C11.8408 0.432251 0.359802 11.8874 0.359802 26.018C0.359802 40.1487 11.8408 51.6038 26.0034 51.6038Z" fill="#26262A" stroke="#3E3E45" stroke-width="3" stroke-miterlimit="10"/>
<path d="M35.7093 8.26986L27.8273 34.5236L27.2858 36.192L26.7535 38.1344L21.766 28.2004C22.7501 27.7757 23.6517 27.2443 24.4715 26.6388C25.2924 26.0331 25.9969 25.3305 26.5875 24.5446C27.1781 23.7598 27.6413 22.8799 27.9771 21.9146C28.314 20.9494 28.4816 19.8836 28.4816 18.7218C28.4816 16.9222 28.166 15.3542 27.5341 14.0207C26.9025 12.6873 26.0376 11.5777 24.9387 10.6938C23.8242 9.80932 22.5277 9.28548 21.0517 8.84352C19.5755 8.40183 18.0009 8.26959 16.3287 8.26959H11.4122V10.6475C12.9851 10.6475 14.0432 10.6378 17.2006 10.6547C21.3354 10.6787 25.2753 13.9216 25.2753 18.2553C25.2753 22.5893 21.712 26.1161 17.3674 26.1161C16.8294 26.1161 16.2836 26.0684 15.7759 25.9658L17.5202 29.0124L24.5457 43.4597H25.342H29.3027H29.3432L29.367 43.3008L29.3516 43.4972L40.5945 8.26986H35.7093Z" fill="url(#paint0_linear_2_41)"/>
</g>
<defs>
<linearGradient id="paint0_linear_2_41" x1="11.4121" y1="25.8834" x2="40.5949" y2="25.8834" gradientUnits="userSpaceOnUse">
<stop stop-color="#CC2B5E"/>
<stop offset="1" stop-color="#753A88"/>
</linearGradient>
<clipPath id="clip0_2_41">
<rect width="52" height="52" fill="white"/>
</clipPath>
</defs>
</svg>
