<svg width="64" height="64" viewBox="0 0 64 64" fill="none" xmlns="http://www.w3.org/2000/svg">
<path d="M0 32V0H64V64H0" fill="#007ACC"/>
<path d="M14.032 32.112V34.72H22.352V58.4H28.256V34.72H36.576V32.16C36.576 30.72 36.576 29.552 36.512 29.52C36.512 29.472 31.44 29.456 25.28 29.456L14.08 29.504V32.128L14.032 32.112ZM51.424 29.44C53.056 29.824 54.304 30.56 55.424 31.728C56.016 32.368 56.896 33.488 56.96 33.776C56.96 33.872 54.192 35.744 52.512 36.784C52.448 36.832 52.192 36.56 51.936 36.144C51.104 34.96 50.256 34.448 48.928 34.352C47.008 34.224 45.728 35.232 45.728 36.912C45.728 37.424 45.824 37.712 46.016 38.128C46.448 39.008 47.248 39.536 49.728 40.624C54.304 42.592 56.288 43.888 57.488 45.744C58.848 47.824 59.152 51.088 58.24 53.536C57.216 56.208 54.72 58.016 51.152 58.608C50.032 58.8 47.472 58.768 46.272 58.56C43.712 58.08 41.264 56.8 39.76 55.152C39.168 54.512 38.032 52.8 38.096 52.688L38.704 52.304L41.104 50.912L42.912 49.856L43.328 50.416C43.856 51.248 45.04 52.368 45.728 52.752C47.808 53.824 50.592 53.68 51.968 52.432C52.56 51.888 52.816 51.312 52.816 50.512C52.816 49.776 52.704 49.44 52.336 48.88C51.824 48.176 50.8 47.6 47.92 46.32C44.608 44.912 43.2 44.016 41.888 42.64C41.136 41.808 40.448 40.512 40.128 39.44C39.888 38.512 39.808 36.24 40.032 35.328C40.72 32.128 43.136 29.888 46.592 29.248C47.712 29.024 50.352 29.12 51.456 29.408L51.424 29.44Z" fill="white"/>
</svg>
