<svg width="64" height="64" viewBox="0 0 64 64" fill="none" xmlns="http://www.w3.org/2000/svg">
<path d="M32 0.0106659L60.2483 15.9896V47.9581L32 63.937L3.75171 47.9581V15.9896L32 0.0106659Z" fill="white"/>
<path d="M55.2062 46.8495L32.938 59.46V49.653L46.817 42.01L55.2062 46.8495ZM56.7306 45.4744V19.1236L48.5865 23.8245V40.7735L56.7306 45.4744ZM8.70848 46.8495L30.9767 59.4493V49.6424L17.0977 42.01L8.70848 46.8495ZM7.18414 45.4744V19.1236L15.3282 23.8245V40.7735L7.18414 45.4744ZM8.13286 17.418L30.9767 4.49841V13.9856L16.3408 22.0337L16.2236 22.0976L8.13286 17.418ZM55.7712 17.418L32.938 4.49841V13.9856L47.5632 22.0443L47.6804 22.1083L55.7712 17.418Z" fill="#8ED6FB"/>
<path d="M30.9767 47.4145L17.2896 39.878V24.9651L30.9767 32.8639V47.4145ZM32.938 47.4145L46.6251 39.8887V24.9651L32.938 32.8639V47.4145ZM18.2063 23.2382L31.9573 15.6805L45.6977 23.2382L31.9573 31.169L18.2063 23.2382Z" fill="#1C78C0"/>
</svg>
